<svg xmlns="http://www.w3.org/2000/svg" viewBox="0 0 24 24">
  
  <path fill="#2e3436" d="M15.125,20 L15.125,4 Q15.125,2.875 14,2.875 L10,2.875 Q8.875,2.875 8.875,4 L8.875,20 Q8.875,20.362 8.619,20.619 Q8.362,20.875 8,20.875 Q7.638,20.875 7.381,20.619 Q7.125,20.362 7.125,20 L7.125,4 Q7.125,1.125 10,1.125 L14,1.125 Q16.875,1.125 16.875,4 L16.875,20 Q16.875,20.362 16.619,20.619 Q16.362,20.875 16,20.875 Q15.638,20.875 15.381,20.619 Q15.125,20.362 15.125,20 Z"/>
  <path fill="#2e3436" d="M4,5.125 L20,5.125 Q22.875,5.125 22.875,8 L22.875,18 Q22.875,20.875 20,20.875 L4,20.875 Q1.125,20.875 1.125,18 L1.125,8 Q1.125,5.125 4,5.125 Z M4,6.875 Q2.875,6.875 2.875,8 L2.875,18 Q2.875,19.125 4,19.125 L20,19.125 Q21.125,19.125 21.125,18 L21.125,8 Q21.125,6.875 20,6.875 Z"/>
</svg>

