<svg xmlns="http://www.w3.org/2000/svg" viewBox="0 0 24 24">
  
  <path fill="#2e3436" d="M16.875,14 L16.875,15.715 L18.064,16.458 Q18.371,16.65 18.453,17.003 Q18.534,17.356 18.342,17.664 Q18.15,17.971 17.797,18.053 Q17.444,18.134 17.136,17.942 L15.536,16.942 Q15.125,16.685 15.125,16.2 L15.125,14 Q15.125,13.638 15.381,13.381 Q15.638,13.125 16,13.125 Q16.362,13.125 16.619,13.381 Q16.875,13.638 16.875,14 Z"/>
  <path fill="#2e3436" d="M16.875,2 L16.875,5 Q16.875,5.362 16.619,5.619 Q16.362,5.875 16,5.875 Q15.638,5.875 15.381,5.619 Q15.125,5.362 15.125,5 L15.125,2 Q15.125,1.638 15.381,1.381 Q15.638,1.125 16,1.125 Q16.362,1.125 16.619,1.381 Q16.875,1.638 16.875,2 Z"/>
  <path fill="#2e3436" d="M20.125,7.338 L20.125,5 Q20.125,3.875 19,3.875 L5,3.875 Q3.875,3.875 3.875,5 L3.875,19 Q3.875,20.125 5,20.125 L7.338,20.125 Q7.7,20.125 7.957,20.381 Q8.213,20.638 8.213,21 Q8.213,21.362 7.957,21.619 Q7.7,21.875 7.338,21.875 L5,21.875 Q2.125,21.875 2.125,19 L2.125,5 Q2.125,2.125 5,2.125 L19,2.125 Q21.875,2.125 21.875,5 L21.875,7.338 Q21.875,7.7 21.619,7.957 Q21.362,8.213 21,8.213 Q20.638,8.213 20.381,7.957 Q20.125,7.7 20.125,7.338 Z"/>
  <path fill="#2e3436" d="M3,8.125 L8.859,8.125 Q9.221,8.125 9.478,8.381 Q9.734,8.638 9.734,9 Q9.734,9.362 9.478,9.619 Q9.221,9.875 8.859,9.875 L3,9.875 Q2.638,9.875 2.381,9.619 Q2.125,9.362 2.125,9 Q2.125,8.638 2.381,8.381 Q2.638,8.125 3,8.125 Z"/>
  <path fill="#2e3436" d="M8.875,2 L8.875,5 Q8.875,5.362 8.619,5.619 Q8.362,5.875 8,5.875 Q7.638,5.875 7.381,5.619 Q7.125,5.362 7.125,5 L7.125,2 Q7.125,1.638 7.381,1.381 Q7.638,1.125 8,1.125 Q8.362,1.125 8.619,1.381 Q8.875,1.638 8.875,2 Z"/>
  <path fill="#2e3436" d="M22.875,16 Q22.875,18.848 20.861,20.861 Q18.848,22.875 16,22.875 Q13.152,22.875 11.139,20.861 Q9.125,18.848 9.125,16 Q9.125,13.152 11.139,11.139 Q13.152,9.125 16,9.125 Q18.848,9.125 20.861,11.139 Q22.875,13.152 22.875,16 Z M21.125,16 Q21.125,13.877 19.624,12.376 Q18.123,10.875 16,10.875 Q13.877,10.875 12.376,12.376 Q10.875,13.877 10.875,16 Q10.875,18.123 12.376,19.624 Q13.877,21.125 16,21.125 Q18.123,21.125 19.624,19.624 Q21.125,18.123 21.125,16 Z"/>
</svg>

