<svg xmlns="http://www.w3.org/2000/svg" viewBox="0 0 24 24">
  
  <path fill="#2e3436" d="M20,20.875 L4,20.875 Q1.125,20.875 1.125,18 L1.125,5 Q1.125,2.125 4,2.125 L7.93,2.125 Q9.479,2.125 10.325,3.41 L11.141,4.619 Q11.478,5.131 12.1,5.125 L20,5.125 Q22.875,5.125 22.875,8 L22.875,18 Q22.875,20.875 20,20.875 Z M20,19.125 Q21.125,19.125 21.125,18 L21.125,8 Q21.125,6.875 20,6.875 L12.1,6.875 Q10.541,6.89 9.679,5.581 L8.875,4.39 Q8.536,3.875 7.93,3.875 L4,3.875 Q2.875,3.875 2.875,5 L2.875,18 Q2.875,19.125 4,19.125 Z"/>
  <path fill="#2e3436" d="M9.375,8.875 L14.625,8.875 Q16.125,8.875 16.125,10.375 L16.125,15.625 Q16.125,17.125 14.625,17.125 L9.375,17.125 Q7.875,17.125 7.875,15.625 L7.875,10.375 Q7.875,8.875 9.375,8.875 Z M9.375,10.375 L9.375,15.625 L14.625,15.625 L14.625,10.375 Z"/>
  <path fill="#2e3436" d="M10.875,9.625 L10.875,16.375 Q10.875,16.524 10.818,16.662 Q10.761,16.8 10.655,16.905 Q10.55,17.011 10.412,17.068 Q10.274,17.125 10.125,17.125 Q9.976,17.125 9.838,17.068 Q9.7,17.011 9.595,16.905 Q9.489,16.8 9.432,16.662 Q9.375,16.524 9.375,16.375 L9.375,9.625 Q9.375,9.476 9.432,9.338 Q9.489,9.2 9.595,9.095 Q9.7,8.989 9.838,8.932 Q9.976,8.875 10.125,8.875 Q10.274,8.875 10.412,8.932 Q10.55,8.989 10.655,9.095 Q10.761,9.2 10.818,9.338 Q10.875,9.476 10.875,9.625 Z"/>
  <path fill="#2e3436" d="M8.625,10.562 L10.125,10.562 Q10.274,10.562 10.412,10.62 Q10.55,10.677 10.655,10.782 Q10.761,10.888 10.818,11.025 Q10.875,11.163 10.875,11.312 Q10.875,11.462 10.818,11.6 Q10.761,11.737 10.655,11.843 Q10.55,11.948 10.412,12.005 Q10.274,12.062 10.125,12.062 L8.625,12.062 Q8.476,12.062 8.338,12.005 Q8.2,11.948 8.095,11.843 Q7.989,11.737 7.932,11.6 Q7.875,11.462 7.875,11.312 Q7.875,11.163 7.932,11.025 Q7.989,10.888 8.095,10.782 Q8.2,10.677 8.338,10.62 Q8.476,10.562 8.625,10.562 Z"/>
  <path fill="#2e3436" d="M8.625,12.25 L15.375,12.25 Q15.524,12.25 15.662,12.307 Q15.8,12.364 15.905,12.47 Q16.011,12.575 16.068,12.713 Q16.125,12.851 16.125,13 Q16.125,13.149 16.068,13.287 Q16.011,13.425 15.905,13.53 Q15.8,13.636 15.662,13.693 Q15.524,13.75 15.375,13.75 L8.625,13.75 Q8.476,13.75 8.338,13.693 Q8.2,13.636 8.095,13.53 Q7.989,13.425 7.932,13.287 Q7.875,13.149 7.875,13 Q7.875,12.851 7.932,12.713 Q7.989,12.575 8.095,12.47 Q8.2,12.364 8.338,12.307 Q8.476,12.25 8.625,12.25 Z"/>
  <path fill="#2e3436" d="M8.625,13.938 L10.125,13.938 Q10.274,13.938 10.412,13.995 Q10.55,14.052 10.655,14.157 Q10.761,14.263 10.818,14.4 Q10.875,14.538 10.875,14.688 Q10.875,14.837 10.818,14.975 Q10.761,15.112 10.655,15.218 Q10.55,15.323 10.412,15.38 Q10.274,15.438 10.125,15.438 L8.625,15.438 Q8.476,15.438 8.338,15.38 Q8.2,15.323 8.095,15.218 Q7.989,15.112 7.932,14.975 Q7.875,14.837 7.875,14.688 Q7.875,14.538 7.932,14.4 Q7.989,14.263 8.095,14.157 Q8.2,14.052 8.338,13.995 Q8.476,13.938 8.625,13.938 Z"/>
  <path fill="#2e3436" d="M14.625,9.625 L14.625,16.375 Q14.625,16.524 14.568,16.662 Q14.511,16.8 14.405,16.905 Q14.3,17.011 14.162,17.068 Q14.024,17.125 13.875,17.125 Q13.726,17.125 13.588,17.068 Q13.45,17.011 13.345,16.905 Q13.239,16.8 13.182,16.662 Q13.125,16.524 13.125,16.375 L13.125,9.625 Q13.125,9.476 13.182,9.338 Q13.239,9.2 13.345,9.095 Q13.45,8.989 13.588,8.932 Q13.726,8.875 13.875,8.875 Q14.024,8.875 14.162,8.932 Q14.3,8.989 14.405,9.095 Q14.511,9.2 14.568,9.338 Q14.625,9.476 14.625,9.625 Z"/>
  <path fill="#2e3436" d="M13.875,10.562 L15.375,10.562 Q15.524,10.562 15.662,10.62 Q15.8,10.677 15.905,10.782 Q16.011,10.888 16.068,11.025 Q16.125,11.163 16.125,11.312 Q16.125,11.462 16.068,11.6 Q16.011,11.737 15.905,11.843 Q15.8,11.948 15.662,12.005 Q15.524,12.062 15.375,12.062 L13.875,12.062 Q13.726,12.062 13.588,12.005 Q13.45,11.948 13.345,11.843 Q13.239,11.737 13.182,11.6 Q13.125,11.462 13.125,11.312 Q13.125,11.163 13.182,11.025 Q13.239,10.888 13.345,10.782 Q13.45,10.677 13.588,10.62 Q13.726,10.562 13.875,10.562 Z"/>
  <path fill="#2e3436" d="M13.875,13.938 L15.375,13.938 Q15.524,13.938 15.662,13.995 Q15.8,14.052 15.905,14.157 Q16.011,14.263 16.068,14.4 Q16.125,14.538 16.125,14.688 Q16.125,14.837 16.068,14.975 Q16.011,15.112 15.905,15.218 Q15.8,15.323 15.662,15.38 Q15.524,15.438 15.375,15.438 L13.875,15.438 Q13.726,15.438 13.588,15.38 Q13.45,15.323 13.345,15.218 Q13.239,15.112 13.182,14.975 Q13.125,14.837 13.125,14.688 Q13.125,14.538 13.182,14.4 Q13.239,14.263 13.345,14.157 Q13.45,14.052 13.588,13.995 Q13.726,13.938 13.875,13.938 Z"/>
</svg>

