<svg xmlns="http://www.w3.org/2000/svg" viewBox="0 0 24 24">
  
  <path fill="#2e3436" d="M22.47,7.738 L13.479,13.465 Q13.464,13.475 13.448,13.484 Q12.004,14.322 10.561,13.484 Q10.545,13.475 10.53,13.465 L1.53,7.738 Q1.224,7.544 1.146,7.19 Q1.067,6.836 1.262,6.53 Q1.456,6.224 1.81,6.146 Q2.164,6.067 2.47,6.262 L11.453,11.978 Q12.004,12.291 12.556,11.978 L21.53,6.262 Q21.836,6.067 22.189,6.146 Q22.543,6.224 22.738,6.53 Q22.933,6.836 22.854,7.189 Q22.776,7.543 22.47,7.738 Z"/>
  <path fill="#2e3436" d="M4,3.125 L20,3.125 Q22.875,3.125 22.875,6 L22.875,18 Q22.875,20.875 20,20.875 L4,20.875 Q1.125,20.875 1.125,18 L1.125,6 Q1.125,3.125 4,3.125 Z M4,4.875 Q2.875,4.875 2.875,6 L2.875,18 Q2.875,19.125 4,19.125 L20,19.125 Q21.125,19.125 21.125,18 L21.125,6 Q21.125,4.875 20,4.875 Z"/>
</svg>

